<?xml version="1.0" encoding="iso-8859-1"?>
<!-- Generator: Adobe Illustrator 19.0.0, SVG Export Plug-In . SVG Version: 6.00 Build 0)  -->
<svg version="1.1" id="Layer_1" xmlns="http://www.w3.org/2000/svg" xmlns:xlink="http://www.w3.org/1999/xlink" x="0px" y="0px"
	 viewBox="0 0 512 512" style="enable-background:new 0 0 512 512;" xml:space="preserve">
<g>
	<g>
		<path d="M438.341,61.3L256,7.671L73.659,61.3L0,159.513h28.735v344.816h88.816V232.656h276.898v271.673h88.816V159.513H512
			L438.341,61.3z M382.258,61.143l43.538,12.805v69.891h-43.538V61.143z M323.048,43.728l43.537,12.805v87.306h-43.537V43.728z
			 M263.837,26.314l43.538,12.805V143.84h-43.538V26.314z M204.625,39.119l43.538-12.805V143.84h-43.538V39.119z M145.415,56.533
			l43.537-12.805v100.111h-43.537V56.533z M86.204,73.948l43.538-12.805v82.696H86.204V73.948z M70.531,91.595v52.245H31.347
			L70.531,91.595z M467.592,488.656h-57.469V216.982H101.878v271.673H44.408V159.513h423.184V488.656z M441.469,143.84V91.595
			l39.184,52.245H441.469z"/>
	</g>
</g>
<g>
	<g>
		<path d="M211.592,300.574h-47.02h-31.347v94.041v15.673v94.041h109.714v-94.041v-15.673v-94.041H211.592z M180.245,316.248h15.673
			v15.674h-15.673V316.248z M227.265,488.656h-78.367v-78.367h15.673v31.347h47.02v-31.347h15.673V488.656z M180.245,425.962
			v-15.673h15.673v15.673H180.245z M227.265,394.615h-15.673h-47.02h-15.673v-78.367h15.673v31.347h47.02v-31.347h15.673V394.615z"
			/>
	</g>
</g>
<g>
	<g>
		<path d="M347.429,394.615h-47.02h-31.347v109.714h109.714V394.615H347.429z M316.082,410.289h15.674v15.673h-15.674V410.289z
			 M363.102,488.656h-78.367v-78.367h15.673v31.347h47.02v-31.347h15.673V488.656z"/>
	</g>
</g>
<g>
	<g>
		<rect x="279.51" y="185.637" width="15.673" height="15.673"/>
	</g>
</g>
<g>
	<g>
		<rect x="248.163" y="185.637" width="15.673" height="15.673"/>
	</g>
</g>
<g>
	<g>
		<rect x="216.816" y="185.637" width="15.673" height="15.673"/>
	</g>
</g>
<g>
</g>
<g>
</g>
<g>
</g>
<g>
</g>
<g>
</g>
<g>
</g>
<g>
</g>
<g>
</g>
<g>
</g>
<g>
</g>
<g>
</g>
<g>
</g>
<g>
</g>
<g>
</g>
<g>
</g>
</svg>
