<?xml version="1.0" encoding="iso-8859-1"?>
<!-- Generator: Adobe Illustrator 18.0.0, SVG Export Plug-In . SVG Version: 6.00 Build 0)  -->
<!DOCTYPE svg PUBLIC "-//W3C//DTD SVG 1.1//EN" "http://www.w3.org/Graphics/SVG/1.1/DTD/svg11.dtd">
<svg version="1.1" id="Capa_1" xmlns="http://www.w3.org/2000/svg" xmlns:xlink="http://www.w3.org/1999/xlink" x="0px" y="0px"
	 viewBox="0 0 339.937 339.937" style="enable-background:new 0 0 339.937 339.937;" xml:space="preserve">
<g>
	<path d="M329.868,289.765V129.572c-4.679,3.186-10.325,5.051-16.399,5.051c-9.878,0-18.627-4.928-23.917-12.455
		c-5.29,7.527-14.039,12.455-23.917,12.455c-9.877,0-18.626-4.928-23.916-12.454c-5.29,7.526-14.039,12.454-23.916,12.454
		c-9.878,0-18.628-4.928-23.918-12.455c-5.29,7.527-14.039,12.455-23.916,12.455c-9.878,0-18.627-4.928-23.917-12.455
		c-5.29,7.527-14.039,12.455-23.917,12.455c-9.877,0-18.626-4.928-23.916-12.454c-5.29,7.526-14.039,12.454-23.916,12.454
		c-9.878,0-18.627-4.928-23.917-12.455c-5.29,7.527-14.039,12.455-23.917,12.455c-6.075,0-11.721-1.865-16.399-5.051v160.193H0
		v30.203h339.937v-30.203H329.868z M199.284,225.508H44.713v-54.48h154.57V225.508z M285.451,266.373h-50.635v-95.345h50.635
		V266.373z"/>
	<path d="M313.469,123.015c9.725,0,17.606-7.883,17.606-17.607V94.069V19.968h-35.213v74.101v11.339
		C295.862,115.132,303.744,123.015,313.469,123.015z"/>
	<path d="M217.802,123.015c9.725,0,17.606-7.883,17.606-17.607V94.069V19.968h-35.214v74.101v11.339
		C200.195,115.132,208.077,123.015,217.802,123.015z"/>
	<path d="M265.635,123.015c9.725,0,17.606-7.883,17.606-17.607V94.069V19.968h-35.213v74.101v11.339
		C248.028,115.132,255.91,123.015,265.635,123.015z"/>
	<path d="M74.302,123.015c9.725,0,17.607-7.883,17.607-17.607V94.069V19.968H56.695v74.101v11.339
		C56.695,115.132,64.577,123.015,74.302,123.015z"/>
	<path d="M169.968,123.015c9.725,0,17.606-7.883,17.606-17.607V94.069V19.968h-35.213v74.101v11.339
		C152.362,115.132,160.244,123.015,169.968,123.015z"/>
	<path d="M122.134,123.015c9.726,0,17.607-7.883,17.607-17.607V94.069V19.968h-35.213v74.101v11.339
		C104.528,115.132,112.41,123.015,122.134,123.015z"/>
	<path d="M26.468,123.015c9.725,0,17.606-7.883,17.606-17.607V94.069V19.968H8.861v74.101v11.339
		C8.861,115.132,16.743,123.015,26.468,123.015z"/>
</g>
<g>
</g>
<g>
</g>
<g>
</g>
<g>
</g>
<g>
</g>
<g>
</g>
<g>
</g>
<g>
</g>
<g>
</g>
<g>
</g>
<g>
</g>
<g>
</g>
<g>
</g>
<g>
</g>
<g>
</g>
</svg>
